<?xml version="1.0" encoding="UTF-8" standalone="no"?>
<!DOCTYPE svg PUBLIC "-//W3C//DTD SVG 1.1//EN" "http://www.w3.org/Graphics/SVG/1.1/DTD/svg11.dtd">
<svg width="100%" height="100%" viewBox="0 0 715 523" version="1.1" xmlns="http://www.w3.org/2000/svg" xmlns:xlink="http://www.w3.org/1999/xlink" xml:space="preserve" xmlns:serif="http://www.serif.com/" style="fill-rule:evenodd;clip-rule:evenodd;stroke-linejoin:round;stroke-miterlimit:2;">
    <g transform="matrix(1,0,0,1,-764,0)">
        <g id="Artboard2" transform="matrix(1,0,0,1,-0.918,0)">
            <rect x="764.918" y="0" width="714.918" height="522.387" style="fill:none;"/>
            <g transform="matrix(1.71516,0,0,1.71516,-531.669,-57.7021)">
                <g transform="matrix(1,0,0,1,378.061,-239.28)">
                    <path d="M635.061,361.585L629.082,361.585L629.082,379.911L635.061,379.911L635.061,361.585ZM650.514,411.722L635.211,411.722L635.211,391.594L629.033,391.594L629.033,411.705L613.496,411.705L613.496,409.87C613.496,393.696 613.506,377.526 613.473,361.352C613.469,360.211 613.783,359.38 614.567,358.559C616.942,356.067 619.204,353.458 621.596,350.983C622.103,350.459 622.984,350.025 623.698,350.022C632.145,349.955 640.593,350.005 649.04,349.952C650.291,349.945 650.648,350.315 650.645,351.553C650.611,371.117 650.621,390.677 650.618,410.24C650.618,410.674 650.561,411.111 650.514,411.722" style="fill:rgb(255,85,30);fill-rule:nonzero;"/>
                </g>
                <g transform="matrix(1,0,0,1,378.061,-101.161)">
                    <path d="M668.443,310.801L674.435,310.801L674.435,292.472L668.443,292.472L668.443,310.801ZM689.882,342.662L674.578,342.662L674.578,322.535L668.4,322.535L668.4,342.646L652.866,342.646L652.866,340.811C652.866,324.637 652.877,308.466 652.843,292.292C652.84,291.151 653.153,290.324 653.941,289.5C656.316,287.008 658.578,284.399 660.97,281.923C661.477,281.399 662.358,280.969 663.072,280.962C671.519,280.896 679.966,280.946 688.414,280.892C689.668,280.886 690.018,281.259 690.018,282.497C689.985,302.061 689.995,321.621 689.992,341.184C689.985,341.618 689.925,342.052 689.882,342.662" style="fill-rule:nonzero;"/>
                </g>
                <g transform="matrix(1,0,0,1,378.061,-239.19)">
                    <path d="M501.609,361.472L496.558,361.472L496.558,384.158L501.609,384.158L501.609,361.472ZM496.385,396.042L496.385,407.805C496.385,411.718 496.385,411.718 492.422,411.718L481.152,411.718C481.112,411.035 481.055,410.497 481.055,409.96C481.052,393.336 481.038,376.712 481.092,360.091C481.095,359.26 481.502,358.256 482.056,357.635C484.168,355.277 486.383,353.005 488.642,350.783C489.129,350.306 489.956,349.932 490.627,349.925C498.967,349.869 507.304,349.905 515.645,349.865C516.779,349.859 517.2,350.149 517.196,351.35C517.16,365.749 517.163,380.148 517.196,394.55C517.2,395.721 516.836,396.072 515.672,396.062C509.947,396.012 504.218,396.042 498.493,396.042L496.385,396.042Z" style="fill:rgb(255,85,30);fill-rule:nonzero;"/>
                </g>
                <g transform="matrix(1,0,0,1,919.164,207.352)">
                    <path d="M0,6.689L0,-11.64C0,-16.464 0,-16.464 -4.824,-16.077C-4.924,-16.071 -5.014,-15.977 -5.198,-15.877L-5.198,6.692C-3.453,6.689 -1.862,6.689 0,6.689M15.343,-27.447L15.343,18.479L-5.148,18.479C-5.224,19.347 -5.338,20.037 -5.341,20.728C-5.358,24.675 -5.385,28.625 -5.331,32.571C-5.315,33.859 -5.725,34.293 -7.059,34.266C-11.503,34.186 -15.947,34.236 -20.591,34.236C-20.624,33.569 -20.681,32.985 -20.681,32.398C-20.684,15.83 -20.701,-0.737 -20.641,-17.305C-20.638,-18.182 -20.211,-19.243 -19.624,-19.904C-17.522,-22.273 -15.29,-24.525 -13.045,-26.763C-12.624,-27.18 -11.93,-27.554 -11.36,-27.557C-2.686,-27.604 5.985,-27.584 14.659,-27.577C14.819,-27.581 14.98,-27.52 15.343,-27.447" style="fill-rule:nonzero;"/>
                </g>
                <g transform="matrix(1,0,0,1,933.98,121.982)">
                    <path d="M0,39.083L15.89,39.083L15.89,50.413L-17.485,50.413C-17.485,48.077 -17.402,45.712 -17.512,43.35C-17.605,41.298 -17.138,39.45 -16.337,37.568C-11.316,25.782 -6.375,13.965 -1.408,2.155C-1.178,1.607 -0.977,1.047 -0.661,0.226L-16.104,0.226L-16.104,-11.2C-15.53,-11.23 -14.993,-11.284 -14.456,-11.284C-5.785,-11.29 2.889,-11.257 11.56,-11.32C12.851,-11.33 13.405,-10.913 13.769,-9.696C14.416,-7.52 15.186,-5.375 16.047,-3.277C16.551,-2.046 16.431,-1.002 15.937,0.193C10.856,12.433 5.815,24.691 0.771,36.944C0.52,37.552 0.324,38.176 0,39.083" style="fill:rgb(255,85,30);fill-rule:nonzero;"/>
                </g>
                <g transform="matrix(1,0,0,1,953.871,110.661)">
                    <path d="M0,61.747C0,58.407 -0.023,55.191 0.023,51.979C0.03,51.455 0.33,50.924 0.544,50.417C5.718,38.097 10.903,25.776 16.081,13.455C16.307,12.912 16.501,12.354 16.814,11.53L1.365,11.53L1.365,0.124C1.975,0.091 2.512,0.041 3.049,0.041C11.72,0.034 20.394,0.061 29.065,0.007C30.259,0 30.837,0.341 31.2,1.495C32.068,4.241 33.859,6.96 33.802,9.659C33.746,12.351 31.921,15.02 30.83,17.682C26.66,27.841 22.473,37.99 18.296,48.142C18.026,48.796 17.795,49.466 17.455,50.367L33.369,50.367L33.369,61.747L0,61.747" style="fill:rgb(255,85,30);fill-rule:nonzero;"/>
                </g>
                <g transform="matrix(1,0,0,1,972.711,229.978)">
                    <path d="M0,-38.773L-15.47,-38.773L-15.47,-50.133C-14.883,-50.163 -14.346,-50.216 -13.809,-50.216C-5.138,-50.223 3.536,-50.196 12.207,-50.246C13.382,-50.253 13.999,-49.953 14.359,-48.778C15.036,-46.553 15.807,-44.351 16.688,-42.199C17.191,-40.962 17.058,-39.917 16.568,-38.73C11.487,-26.489 6.446,-14.232 1.401,-1.978C1.154,-1.374 0.961,-0.75 0.661,0.094L16.531,0.094L16.531,11.48L-16.888,11.48C-16.424,7.247 -17.618,2.996 -15.784,-1.234C-10.669,-13.037 -5.755,-24.931 -0.764,-36.788C-0.537,-37.332 -0.337,-37.892 0,-38.773" style="fill-rule:nonzero;"/>
                </g>
                <g transform="matrix(1,0,0,1,993.238,179.721)">
                    <path d="M0,61.743C0,58.41 -0.023,55.194 0.023,51.978C0.03,51.454 0.33,50.924 0.54,50.417C5.715,38.096 10.899,25.775 16.077,13.455C16.307,12.911 16.501,12.354 16.814,11.53L1.365,11.53L1.365,0.12C1.968,0.09 2.509,0.036 3.046,0.036C11.717,0.03 20.391,0.057 29.062,0.006C30.253,0 30.867,0.32 31.2,1.491C31.654,3.086 32.141,4.704 32.872,6.185C34.069,8.614 33.786,10.766 32.735,13.245C27.787,24.878 23.047,36.598 18.236,48.291C17.989,48.895 17.795,49.519 17.495,50.363L33.375,50.363L33.375,61.743L0,61.743Z" style="fill-rule:nonzero;"/>
                </g>
                <g transform="matrix(1,0,0,1,898.57,129.955)">
                    <path d="M0,42.57L0,-0.1C3.837,-0.1 7.586,-0.103 11.333,-0.097C11.663,-0.097 11.994,-0.017 12.324,0C15.24,0.127 15.24,0.127 15.24,2.999C15.24,15.493 15.213,27.984 15.273,40.478C15.28,42.133 14.863,42.673 13.131,42.617C8.814,42.48 4.49,42.57 0,42.57" style="fill:rgb(255,85,30);fill-rule:nonzero;"/>
                </g>
                <g transform="matrix(1,0,0,1,937.941,199.002)">
                    <path d="M0,42.583L0,-0.087C3.84,-0.087 7.59,-0.09 11.34,-0.084C11.613,-0.084 11.89,-0.007 12.164,0.006C15.24,0.186 15.24,0.186 15.24,3.349C15.24,15.73 15.21,28.114 15.273,40.495C15.283,42.166 14.826,42.673 13.121,42.623C8.804,42.5 4.481,42.583 0,42.583" style="fill-rule:nonzero;"/>
                </g>
                <g transform="matrix(1,0,0,1,898.58,110.759)">
                    <path d="M0,15.063L0,-0.063L11.373,-0.063C15.233,-0.063 15.233,-0.063 15.233,3.773C15.233,6.936 15.19,10.102 15.253,13.261C15.28,14.573 14.956,15.126 13.495,15.096C9.061,15.003 4.624,15.063 0,15.063" style="fill:rgb(255,85,30);fill-rule:nonzero;"/>
                </g>
                <g transform="matrix(1,0,0,1,937.917,179.741)">
                    <path d="M0,15.133L0,0.013L4.661,0.013C7.713,0.013 10.766,0.057 13.819,-0.007C14.93,-0.03 15.28,0.387 15.273,1.438C15.243,5.545 15.293,9.652 15.216,13.758C15.206,14.222 14.613,15.07 14.276,15.076C9.572,15.163 4.864,15.133 0,15.133" style="fill-rule:nonzero;"/>
                </g>
                <g transform="matrix(1.84831,0,0,1.84831,-822.195,-330.133)">
                    <g transform="matrix(12,0,0,12,930.652,319.928)">
                        <path d="M0.172,-0.304L0.172,-0L0.024,-0L0.024,-0.608L0.122,-0.706L0.362,-0.706L0.362,-0.572L0.172,-0.572L0.172,-0.436L0.347,-0.436L0.347,-0.304L0.172,-0.304Z" style="fill:rgb(255,85,30);fill-rule:nonzero;"/>
                    </g>
                    <g transform="matrix(12,0,0,12,938.919,319.928)">
                        <path d="M0.299,-0L0.211,-0.255L0.172,-0.255L0.172,-0L0.024,-0L0.024,-0.606L0.132,-0.706L0.434,-0.706L0.434,-0.257L0.354,-0.257L0.448,-0L0.299,-0ZM0.286,-0.388L0.286,-0.572L0.172,-0.572L0.172,-0.388L0.286,-0.388Z" style="fill:rgb(255,85,30);fill-rule:nonzero;"/>
                    </g>
                    <g transform="matrix(12,0,0,12,948.135,319.928)">
                        <path d="M0.173,-0L0.024,-0L0.024,-0.594L0.138,-0.706L0.447,-0.706L0.447,-0L0.299,-0L0.299,-0.232L0.173,-0.232L0.173,-0ZM0.299,-0.366L0.299,-0.572L0.173,-0.572L0.173,-0.366L0.299,-0.366Z" style="fill:rgb(255,85,30);fill-rule:nonzero;"/>
                    </g>
                    <g transform="matrix(12,0,0,12,957.474,319.928)">
                        <path d="M0.314,-0.301L0.314,-0.706L0.454,-0.706L0.454,-0L0.308,-0L0.163,-0.405L0.163,-0L0.024,-0L0.024,-0.706L0.171,-0.706L0.314,-0.301Z" style="fill:rgb(255,85,30);fill-rule:nonzero;"/>
                    </g>
                    <g transform="matrix(12,0,0,12,966.943,319.928)">
                        <path d="M0.292,-0.134L0.292,-0.22L0.44,-0.22L0.44,-0.098L0.343,-0L0.024,-0L0.024,-0.609L0.13,-0.706L0.44,-0.706L0.44,-0.439L0.292,-0.439L0.292,-0.572L0.173,-0.572L0.173,-0.134L0.292,-0.134Z" style="fill:rgb(255,85,30);fill-rule:nonzero;"/>
                    </g>
                    <g transform="matrix(12,0,0,12,976.124,319.928)">
                        <path d="M0.172,-0.416L0.299,-0.416L0.299,-0.706L0.447,-0.706L0.447,-0L0.299,-0L0.299,-0.282L0.172,-0.282L0.172,-0L0.024,-0L0.024,-0.706L0.172,-0.706L0.172,-0.416Z" style="fill:rgb(255,85,30);fill-rule:nonzero;"/>
                    </g>
                    <g transform="matrix(12,0,0,12,985.434,319.928)">
                        <path d="M0.27,-0.134L0.27,-0L0.024,-0L0.024,-0.134L0.073,-0.134L0.073,-0.572L0.024,-0.572L0.024,-0.706L0.27,-0.706L0.27,-0.572L0.221,-0.572L0.221,-0.134L0.27,-0.134Z" style="fill:rgb(255,85,30);fill-rule:nonzero;"/>
                    </g>
                    <g transform="matrix(12,0,0,12,992.623,319.928)">
                        <path d="M0.413,-0L0.024,-0L0.024,-0.22L0.172,-0.22L0.172,-0.134L0.264,-0.134L0.264,-0.246L0.029,-0.423L0.029,-0.706L0.408,-0.706L0.408,-0.496L0.274,-0.496L0.274,-0.571L0.177,-0.571L0.177,-0.479L0.413,-0.302L0.413,-0Z" style="fill:rgb(255,85,30);fill-rule:nonzero;"/>
                    </g>
                    <g transform="matrix(12,0,0,12,1001.53,319.928)">
                        <path d="M0.27,-0.134L0.27,-0L0.024,-0L0.024,-0.134L0.073,-0.134L0.073,-0.572L0.024,-0.572L0.024,-0.706L0.27,-0.706L0.27,-0.572L0.221,-0.572L0.221,-0.134L0.27,-0.134Z" style="fill:rgb(255,85,30);fill-rule:nonzero;"/>
                    </g>
                    <g transform="matrix(12,0,0,12,1008.72,319.928)">
                        <path d="M0.314,-0.301L0.314,-0.706L0.454,-0.706L0.454,-0L0.308,-0L0.163,-0.405L0.163,-0L0.024,-0L0.024,-0.706L0.171,-0.706L0.314,-0.301Z" style="fill:rgb(255,85,30);fill-rule:nonzero;"/>
                    </g>
                    <g transform="matrix(12,0,0,12,1018.19,319.928)">
                        <path d="M0.3,-0.134L0.3,-0.243L0.24,-0.243L0.24,-0.368L0.446,-0.368L0.446,-0L0.024,-0L0.024,-0.706L0.422,-0.706L0.422,-0.572L0.173,-0.572L0.173,-0.134L0.3,-0.134Z" style="fill:rgb(255,85,30);fill-rule:nonzero;"/>
                    </g>
                </g>
            </g>
        </g>
    </g>
</svg>
